<?xml version="1.0" encoding="UTF-8"?>
<!DOCTYPE svg PUBLIC "-//W3C//DTD SVG 1.1//EN" "http://www.w3.org/Graphics/SVG/1.1/DTD/svg11.dtd">
<!-- Creator: CorelDRAW X7 -->
<svg xmlns="http://www.w3.org/2000/svg" xml:space="preserve" width="140.489mm" height="133.435mm" version="1.1" style="shape-rendering:geometricPrecision; text-rendering:geometricPrecision; image-rendering:optimizeQuality; fill-rule:evenodd; clip-rule:evenodd"
viewBox="0 0 14049 13344"
 xmlns:xlink="http://www.w3.org/1999/xlink">
 <defs>
  <style type="text/css">
   <![CDATA[
    .fil0 {fill:#FAAF00}
   ]]>
  </style>
 </defs>
 <g id="Layer_x0020_1">
  <metadata id="CorelCorpID_0Corel-Layer"/>
  <path class="fil0" d="M11087 13186l-269 -1102c-595,415 -1215,727 -1869,932 -5599,1786 -7231,-4115 -5754,-8405 -312,-181 -739,-256 -1293,-256l-1902 0 0 -646 1902 0c1340,0 1956,-531 1956,-1843l0 -1866 671 0 0 1866c0,113 5,220 15,323 444,-514 962,-936 1554,-1225 839,-410 1819,-615 2943,-615 1514,0 2694,328 3541,985 847,657 1270,1573 1270,2747l0 7404c0,197 17,431 50,711 33,277 80,609 147,993l-2954 0 -8 -3zm-7892 -8575c454,263 663,750 663,1554l0 1899 671 0 0 -1899c0,-1292 582,-1810 1919,-1810l1940 0 0 -646 -1940 0c-1192,0 -1803,-488 -1904,-1520 -584,676 -1036,1512 -1349,2422z"/>
 </g>
</svg>
