<?xml version="1.0" encoding="UTF-8"?>
<svg id="Layer_2" data-name="Layer 2" xmlns="http://www.w3.org/2000/svg" viewBox="0 0 249 66.98">
  <defs>
    <style>
      .cls-1 {
        fill: #fff;
        stroke-width: 0px;
      }
    </style>
  </defs>
  <g id="Layer_1-2" data-name="Layer 1">
    <g>
      <path class="cls-1" d="M27.73,66.18l-.97-4.14c-2.15,1.56-4.39,2.73-6.75,3.5-2.35.78-4.81,1.17-7.36,1.17-3.94,0-7.03-1.12-9.28-3.35-2.25-2.23-3.37-5.32-3.37-9.26,0-5.17,2.17-9.25,6.5-12.24,4.34-2.98,11.12-5.05,20.35-6.2v-3.7c0-1.73-.58-3.07-1.74-4.01-1.16-.94-2.81-1.41-4.96-1.41s-4.09.46-5.84,1.37c-1.75.91-3.26,2.26-4.52,4.06l-7.58-4.81c1.97-3.06,4.47-5.36,7.5-6.9,3.03-1.54,6.57-2.31,10.63-2.31,5.47,0,9.73,1.23,12.79,3.7,3.06,2.47,4.59,5.91,4.59,10.32v27.82c0,.74.06,1.62.18,2.67.12,1.04.29,2.29.53,3.73h-10.67ZM26.5,43.17c-5.38.74-9.3,1.9-11.77,3.51-2.47,1.6-3.7,3.77-3.7,6.5,0,1.62.44,2.87,1.32,3.75s2.13,1.32,3.75,1.32c1.76,0,3.51-.41,5.23-1.23s3.45-2.07,5.18-3.75v-10.1Z"/>
      <path class="cls-1" d="M41.81,66.18V18.87h10.67v7.85c1.53-2.88,3.28-5.05,5.25-6.5,1.97-1.46,4.13-2.18,6.48-2.18.41,0,.71,0,.9.02.19.02.38.05.55.11v11.64h-.53c-2.5,0-4.79.65-6.88,1.94-2.09,1.29-3.78,3.12-5.07,5.47v28.97h-11.38Z"/>
      <path class="cls-1" d="M82.53,50.98c0,2.29.32,3.79.97,4.47.65.69,1.85,1.04,3.62,1.04.71,0,1.46-.03,2.25-.09.79-.06,1.59-.15,2.38-.26v9.22c-1.23.26-2.65.47-4.25.62-1.6.15-3.29.22-5.05.22-3.85,0-6.67-.89-8.44-2.67-1.78-1.78-2.67-4.59-2.67-8.44l-.68-25.15-5.51-.12-.02-11.75,6.21-.18V2.7h11.2v14.17l9.21-1v16.22l-9.21-1v19.9Z"/>
      <path class="cls-1" d="M127.14,52.91l4.81,3c-1.85,3.76-4.32,6.55-7.41,8.36-3.09,1.81-6.91,2.71-11.46,2.71-6.14,0-10.84-2.09-14.09-6.26-3.25-4.17-4.87-10.24-4.87-18.21s1.64-13.54,4.92-17.88c3.28-4.34,7.78-6.5,13.51-6.5s10.34,2.09,13.56,6.26c3.22,4.17,4.83,10.01,4.83,17.5v1.98h-30.07v1.54c0,4.88,1.17,8.76,3.5,11.64s5.45,4.32,9.33,4.32c2.97,0,5.61-.73,7.92-2.18,2.31-1.46,4.15-3.55,5.53-6.28ZM100.95,38.27h23.02c-.06-4.5-1.11-8.05-3.15-10.65-2.04-2.6-4.77-3.9-8.18-3.9s-6.31,1.27-8.33,3.81c-2.03,2.54-3.15,6.12-3.35,10.74Z"/>
      <path class="cls-1" d="M138.7,66.18V24.56h-7.94v-5.6h7.94v-6.7c0-4.11.91-7.19,2.73-9.22,1.82-2.03,4.59-3.04,8.29-3.04.82,0,1.71.07,2.65.2s1.98.33,3.13.6v5.42c-.91-.21-1.77-.36-2.58-.46-.81-.1-1.57-.15-2.27-.15-1.82,0-3.18.51-4.08,1.54-.9,1.03-1.34,2.56-1.34,4.59v7.23h9.92v5.6h-9.92v41.62h-6.53Z"/>
      <path class="cls-1" d="M159.29,8.86V.88h7.76v7.98h-7.76ZM159.82,66.18V18.96h6.7v47.22h-6.7Z"/>
      <path class="cls-1" d="M207.94.88v50.57c0,4.03.05,7.05.15,9.08.1,2.03.26,3.91.46,5.64h-5.03l-1.54-5.95c-1.76,2.35-3.68,4.05-5.75,5.09-2.07,1.04-4.55,1.56-7.43,1.56-5.88,0-10.45-2.15-13.71-6.46-3.26-4.31-4.89-10.34-4.89-18.1s1.65-13.7,4.94-17.9c3.29-4.2,7.97-6.31,14.02-6.31,2.79,0,5.21.52,7.25,1.57,2.04,1.04,3.71,2.61,5,4.7V.88h6.53ZM201.41,30.78c-1.68-2.47-3.51-4.29-5.51-5.47-2-1.18-4.25-1.76-6.75-1.76-3.85,0-6.85,1.6-8.99,4.81-2.15,3.2-3.22,7.72-3.22,13.54,0,6.53,1.07,11.4,3.22,14.64,2.14,3.23,5.38,4.85,9.7,4.85,2.38,0,4.55-.59,6.5-1.76s3.64-2.92,5.05-5.25v-23.59Z"/>
      <path class="cls-1" d="M244.2,52.91l4.81,3c-1.85,3.76-4.32,6.55-7.41,8.36-3.09,1.81-6.91,2.71-11.46,2.71-6.14,0-10.84-2.09-14.09-6.26-3.25-4.17-4.87-10.24-4.87-18.21s1.64-13.54,4.92-17.88c3.28-4.34,7.78-6.5,13.51-6.5s10.34,2.09,13.56,6.26c3.22,4.17,4.83,10.01,4.83,17.5v1.98h-30.07v1.54c0,4.88,1.17,8.76,3.5,11.64s5.45,4.32,9.33,4.32c2.97,0,5.61-.73,7.92-2.18,2.31-1.46,4.15-3.55,5.53-6.28ZM218.01,38.27h23.02c-.06-4.5-1.11-8.05-3.15-10.65-2.04-2.6-4.77-3.9-8.18-3.9s-6.31,1.27-8.33,3.81c-2.03,2.54-3.15,6.12-3.35,10.74Z"/>
    </g>
  </g>
</svg>